<svg width="21" height="21" viewBox="0 0 21 21" fill="none" xmlns="http://www.w3.org/2000/svg">
<path d="M13.7812 10.5C13.7812 11.3702 13.4355 12.2048 12.8202 12.8202C12.2048 13.4355 11.3702 13.7812 10.5 13.7812C9.62976 13.7812 8.79516 13.4355 8.17981 12.8202C7.56445 12.2048 7.21875 11.3702 7.21875 10.5C7.21875 10.313 7.23844 10.1303 7.27234 9.95312H6.125V14.3248C6.125 14.6289 6.37109 14.875 6.67516 14.875H14.3259C14.4717 14.8747 14.6113 14.8166 14.7143 14.7135C14.8172 14.6103 14.875 14.4706 14.875 14.3248V9.95312H13.7277C13.7616 10.1303 13.7812 10.313 13.7812 10.5ZM10.5 12.6875C10.7873 12.6874 11.0718 12.6308 11.3373 12.5207C11.6027 12.4107 11.8439 12.2495 12.047 12.0462C12.2502 11.843 12.4113 11.6018 12.5212 11.3363C12.631 11.0708 12.6876 10.7862 12.6875 10.4989C12.6874 10.2116 12.6308 9.92706 12.5207 9.66162C12.4107 9.39618 12.2495 9.15501 12.0462 8.95188C11.843 8.74876 11.6018 8.58765 11.3363 8.47775C11.0708 8.36786 10.7862 8.31133 10.4989 8.31141C9.9186 8.31155 9.36212 8.54222 8.95188 8.95266C8.54165 9.3631 8.31126 9.91969 8.31141 10.5C8.31155 11.0803 8.54222 11.6368 8.95266 12.047C9.3631 12.4573 9.91969 12.6876 10.5 12.6875ZM13.125 8.20312H14.4364C14.5235 8.20313 14.6071 8.16859 14.6688 8.10709C14.7305 8.04558 14.7653 7.96212 14.7656 7.875V6.56359C14.7656 6.47628 14.7309 6.39254 14.6692 6.3308C14.6075 6.26906 14.5237 6.23438 14.4364 6.23438H13.125C13.0377 6.23438 12.9539 6.26906 12.8922 6.3308C12.8305 6.39254 12.7958 6.47628 12.7958 6.56359V7.875C12.7969 8.05547 12.9445 8.20312 13.125 8.20312ZM10.5 0C7.71523 0 5.04451 1.10625 3.07538 3.07538C1.10625 5.04451 0 7.71523 0 10.5C0 13.2848 1.10625 15.9555 3.07538 17.9246C5.04451 19.8938 7.71523 21 10.5 21C11.8789 21 13.2443 20.7284 14.5182 20.2007C15.7921 19.6731 16.9496 18.8996 17.9246 17.9246C18.8996 16.9496 19.6731 15.7921 20.2007 14.5182C20.7284 13.2443 21 11.8789 21 10.5C21 9.12112 20.7284 7.75574 20.2007 6.48182C19.6731 5.20791 18.8996 4.05039 17.9246 3.07538C16.9496 2.10036 15.7921 1.32694 14.5182 0.799265C13.2443 0.271591 11.8789 0 10.5 0ZM15.9688 14.7536C15.9688 15.4219 15.4219 15.9688 14.7536 15.9688H6.24641C5.57812 15.9688 5.03125 15.4219 5.03125 14.7536V6.24641C5.03125 5.57812 5.57812 5.03125 6.24641 5.03125H14.7536C15.4219 5.03125 15.9688 5.57812 15.9688 6.24641V14.7536Z" fill="#E6E6E6"/>
</svg>
