<svg width="21" height="21" viewBox="0 0 21 21" fill="none" xmlns="http://www.w3.org/2000/svg">
<path d="M10.5 0C4.70094 0 0 4.70094 0 10.5C0 16.2991 4.70094 21 10.5 21C16.2991 21 21 16.2991 21 10.5C21 4.70094 16.2991 0 10.5 0ZM7.92969 14.852H5.80344V8.00953H7.92969V14.852ZM6.85344 7.16953C6.18187 7.16953 5.74766 6.69375 5.74766 6.10531C5.74766 5.50484 6.195 5.04328 6.88078 5.04328C7.56656 5.04328 7.98656 5.50484 7.99969 6.10531C7.99969 6.69375 7.56656 7.16953 6.85344 7.16953ZM15.6953 14.852H13.5691V11.06C13.5691 10.1773 13.2606 9.57797 12.4917 9.57797C11.9044 9.57797 11.5555 9.98375 11.4013 10.3742C11.3444 10.5131 11.3302 10.71 11.3302 10.9058V14.8509H9.20281V10.1916C9.20281 9.33734 9.17547 8.62313 9.14703 8.00844H10.9944L11.0917 8.95891H11.1344C11.4144 8.51266 12.1002 7.85422 13.2475 7.85422C14.6464 7.85422 15.6953 8.79156 15.6953 10.8063V14.852Z" fill="#E6E6E6"/>
</svg>
