<svg width="21" height="21" viewBox="0 0 21 21" fill="none" xmlns="http://www.w3.org/2000/svg">
<path d="M10.5 0C4.70094 0 0 4.70094 0 10.5C0 16.2991 4.70094 21 10.5 21C16.2991 21 21 16.2991 21 10.5C21 4.70094 16.2991 0 10.5 0ZM11.2186 12.9883C10.5448 12.9369 10.2627 12.6033 9.73547 12.2839C9.44563 13.8053 9.09125 15.2644 8.04125 16.0267C7.71641 13.7255 8.51594 11.9995 8.88781 10.1653C8.25453 9.09891 8.96328 6.95406 10.2998 7.48125C11.9438 8.13312 8.87578 11.4461 10.9353 11.8606C13.0856 12.2916 13.9639 8.12875 12.6306 6.77688C10.7034 4.82234 7.02297 6.73203 7.47578 9.52984C7.58516 10.2134 8.29281 10.4213 7.75797 11.3652C6.52531 11.0917 6.15672 10.1194 6.20484 8.82328C6.28031 6.70141 8.11125 5.215 9.94656 5.01047C12.2686 4.75234 14.4473 5.8625 14.7492 8.04781C15.0872 10.5131 13.7003 13.1808 11.2186 12.9883Z" fill="#E6E6E6"/>
</svg>
