<svg width="143" height="36" viewBox="0 0 143 36" fill="none" xmlns="http://www.w3.org/2000/svg">
<path d="M0.722656 26.0332V20.4082C1.74219 21.2637 2.84961 21.9082 4.04492 22.3418C5.24023 22.7637 6.44727 22.9746 7.66602 22.9746C8.38086 22.9746 9.00195 22.9102 9.5293 22.7812C10.0684 22.6523 10.5137 22.4766 10.8652 22.2539C11.2285 22.0195 11.498 21.75 11.6738 21.4453C11.8496 21.1289 11.9375 20.7891 11.9375 20.4258C11.9375 19.9336 11.7969 19.4941 11.5156 19.1074C11.2344 18.7207 10.8477 18.3633 10.3555 18.0352C9.875 17.707 9.30078 17.3906 8.63281 17.0859C7.96484 16.7812 7.24414 16.4707 6.4707 16.1543C4.50195 15.334 3.03125 14.332 2.05859 13.1484C1.09766 11.9648 0.617188 10.5352 0.617188 8.85938C0.617188 7.54688 0.880859 6.42188 1.4082 5.48438C1.93555 4.53516 2.65039 3.75586 3.55273 3.14648C4.4668 2.53711 5.52148 2.0918 6.7168 1.81055C7.91211 1.51758 9.17773 1.37109 10.5137 1.37109C11.8262 1.37109 12.9863 1.45313 13.9941 1.61719C15.0137 1.76953 15.9512 2.00977 16.8066 2.33789V7.59375C16.3848 7.30078 15.9219 7.04297 15.418 6.82031C14.9258 6.59766 14.416 6.41602 13.8887 6.27539C13.3613 6.12305 12.834 6.01172 12.3066 5.94141C11.791 5.87109 11.2988 5.83594 10.8301 5.83594C10.1855 5.83594 9.59961 5.90039 9.07227 6.0293C8.54492 6.14648 8.09961 6.31641 7.73633 6.53906C7.37305 6.76172 7.0918 7.03125 6.89258 7.34766C6.69336 7.65234 6.59375 7.99805 6.59375 8.38477C6.59375 8.80664 6.70508 9.1875 6.92773 9.52734C7.15039 9.85547 7.4668 10.1719 7.87695 10.4766C8.28711 10.7695 8.78516 11.0625 9.37109 11.3555C9.95703 11.6367 10.6191 11.9297 11.3574 12.2344C12.3652 12.6562 13.2676 13.1074 14.0645 13.5879C14.873 14.0566 15.5645 14.5898 16.1387 15.1875C16.7129 15.7852 17.1523 16.4707 17.457 17.2441C17.7617 18.0059 17.9141 18.8965 17.9141 19.916C17.9141 21.3223 17.6445 22.5059 17.1055 23.4668C16.5781 24.416 15.8574 25.1895 14.9434 25.7871C14.0293 26.373 12.9629 26.7949 11.7441 27.0527C10.5371 27.3105 9.25977 27.4395 7.91211 27.4395C6.5293 27.4395 5.21094 27.3223 3.95703 27.0879C2.71484 26.8535 1.63672 26.502 0.722656 26.0332ZM30.0957 27.4395C27.0957 27.4395 24.7344 26.6016 23.0117 24.9258C21.3008 23.2383 20.4453 20.9531 20.4453 18.0703C20.4453 15.0938 21.3359 12.7676 23.1172 11.0918C24.8984 9.4043 27.3066 8.56055 30.3418 8.56055C33.3301 8.56055 35.6738 9.4043 37.373 11.0918C39.0723 12.7676 39.9219 14.9883 39.9219 17.7539C39.9219 20.7422 39.043 23.1035 37.2852 24.8379C35.5391 26.5723 33.1426 27.4395 30.0957 27.4395ZM30.2363 12.8145C28.9238 12.8145 27.9043 13.2656 27.1777 14.168C26.4512 15.0703 26.0879 16.3477 26.0879 18C26.0879 21.457 27.4824 23.1855 30.2715 23.1855C32.9316 23.1855 34.2617 21.4102 34.2617 17.8594C34.2617 14.4961 32.9199 12.8145 30.2363 12.8145ZM57.166 26.3496C55.9121 27.0762 54.1016 27.4395 51.7344 27.4395C48.9688 27.4395 46.7305 26.6016 45.0195 24.9258C43.3086 23.25 42.4531 21.0879 42.4531 18.4395C42.4531 15.3809 43.3672 12.9727 45.1953 11.2148C47.0352 9.44531 49.4902 8.56055 52.5605 8.56055C54.6816 8.56055 56.2168 8.8418 57.166 9.4043V14.1152C56.0059 13.248 54.7109 12.8145 53.2812 12.8145C51.6875 12.8145 50.4219 13.2832 49.4844 14.2207C48.5586 15.1465 48.0957 16.4297 48.0957 18.0703C48.0957 19.6641 48.541 20.918 49.4316 21.832C50.3223 22.7344 51.5469 23.1855 53.1055 23.1855C54.4883 23.1855 55.8418 22.752 57.166 21.8848V26.3496ZM63.6348 6.15234C62.6973 6.15234 61.9297 5.87695 61.332 5.32617C60.7344 4.76367 60.4355 4.07812 60.4355 3.26953C60.4355 2.4375 60.7344 1.75781 61.332 1.23047C61.9297 0.703125 62.6973 0.439453 63.6348 0.439453C64.584 0.439453 65.3516 0.703125 65.9375 1.23047C66.5352 1.75781 66.834 2.4375 66.834 3.26953C66.834 4.11328 66.5352 4.80469 65.9375 5.34375C65.3516 5.88281 64.584 6.15234 63.6348 6.15234ZM66.377 27H60.8223V9H66.377V27ZM87.2246 19.582H75.4824C75.6699 22.1953 77.3164 23.502 80.4219 23.502C82.4023 23.502 84.1426 23.0332 85.6426 22.0957V26.1035C83.9785 26.9941 81.8164 27.4395 79.1562 27.4395C76.25 27.4395 73.9941 26.6367 72.3887 25.0312C70.7832 23.4141 69.9805 21.1641 69.9805 18.2812C69.9805 15.293 70.8477 12.9258 72.582 11.1797C74.3164 9.43359 76.4492 8.56055 78.9805 8.56055C81.6055 8.56055 83.6328 9.33984 85.0625 10.8984C86.5039 12.457 87.2246 14.5723 87.2246 17.2441V19.582ZM82.0742 16.1719C82.0742 13.5938 81.0312 12.3047 78.9453 12.3047C78.0547 12.3047 77.2812 12.6738 76.625 13.4121C75.9805 14.1504 75.5879 15.0703 75.4473 16.1719H82.0742ZM96.084 27H90.5293V0.351562H96.084V27ZM103.572 6.15234C102.635 6.15234 101.867 5.87695 101.27 5.32617C100.672 4.76367 100.373 4.07812 100.373 3.26953C100.373 2.4375 100.672 1.75781 101.27 1.23047C101.867 0.703125 102.635 0.439453 103.572 0.439453C104.521 0.439453 105.289 0.703125 105.875 1.23047C106.473 1.75781 106.771 2.4375 106.771 3.26953C106.771 4.11328 106.473 4.80469 105.875 5.34375C105.289 5.88281 104.521 6.15234 103.572 6.15234ZM106.314 27H100.76V9H106.314V27ZM121.871 26.7891C121.051 27.2227 119.814 27.4395 118.162 27.4395C114.248 27.4395 112.291 25.4062 112.291 21.3398V13.0957H109.373V9H112.291V5.11523L117.828 3.5332V9H121.871V13.0957H117.828V20.373C117.828 22.248 118.572 23.1855 120.061 23.1855C120.646 23.1855 121.25 23.0156 121.871 22.6758V26.7891ZM142.156 9L134.844 28.4414C133.086 33.1172 130.438 35.4551 126.898 35.4551C125.551 35.4551 124.443 35.3027 123.576 34.998V30.5684C124.314 31.002 125.117 31.2188 125.984 31.2188C127.414 31.2188 128.41 30.5449 128.973 29.1973L129.922 26.9648L122.609 9H128.762L132.119 19.9512C132.33 20.6309 132.494 21.4336 132.611 22.3594H132.682C132.787 21.6797 132.98 20.8887 133.262 19.9863L136.654 9H142.156Z" fill="#4579CB"/>
</svg>
