<svg width="21" height="21" viewBox="0 0 21 21" fill="none" xmlns="http://www.w3.org/2000/svg">
<path d="M10.5 0C4.70156 0 0 4.70156 0 10.5C0 16.2984 4.70156 21 10.5 21C16.2984 21 21 16.2984 21 10.5C21 4.70156 16.2984 0 10.5 0ZM15.5461 7.91484C15.5531 8.025 15.5531 8.13984 15.5531 8.25234C15.5531 11.693 12.9328 15.6562 8.14453 15.6562C6.66797 15.6562 5.29922 15.2273 4.14609 14.4891C4.35703 14.5125 4.55859 14.5219 4.77422 14.5219C5.99297 14.5219 7.11328 14.1094 8.00625 13.4109C6.8625 13.3875 5.90156 12.6375 5.57344 11.6063C5.97422 11.6648 6.33516 11.6648 6.74766 11.5594C6.15873 11.4397 5.62939 11.1199 5.24957 10.6542C4.86974 10.1885 4.66286 9.60564 4.66406 9.00469V8.97187C5.00859 9.16641 5.41406 9.28594 5.83828 9.30234C5.48166 9.06467 5.1892 8.74268 4.98682 8.36491C4.78445 7.98715 4.67841 7.56528 4.67813 7.13672C4.67813 6.65156 4.80469 6.20859 5.03203 5.82422C5.68571 6.62891 6.5014 7.28705 7.42609 7.75586C8.35078 8.22466 9.36377 8.49364 10.3992 8.54531C10.0312 6.77578 11.3531 5.34375 12.9422 5.34375C13.6922 5.34375 14.3672 5.65781 14.843 6.16406C15.4312 6.05391 15.9937 5.83359 16.4953 5.53828C16.3008 6.14062 15.893 6.64922 15.3516 6.97031C15.8766 6.91406 16.3828 6.76875 16.8516 6.56484C16.4977 7.08516 16.0547 7.54688 15.5461 7.91484Z" fill="#E6E6E6"/>
</svg>
