<svg width="74" height="62" viewBox="0 0 74 62" fill="none" xmlns="http://www.w3.org/2000/svg">
<path d="M64.5149 21.8172C64.4349 21.6955 64.3258 21.5956 64.1975 21.5264C64.0691 21.4573 63.9255 21.4211 63.7796 21.4211C63.6337 21.4211 63.4901 21.4573 63.3617 21.5264C63.2333 21.5956 63.1242 21.6955 63.0442 21.8172L55.1641 33.8007C55.077 33.935 55.0276 34.0901 55.0208 34.2498C55.0141 34.4096 55.0503 34.5683 55.1257 34.7094C55.2004 34.85 55.3116 34.9679 55.4477 35.0509C55.5838 35.1339 55.7398 35.1789 55.8993 35.1811H62.6217C61.701 41.8688 58.3459 47.9851 53.1956 52.365C48.3325 56.5239 42.2234 58.9034 36.4346 58.9034C32.6591 58.9034 28.7109 57.8856 25.019 55.9654C21.1842 53.9678 17.8582 51.122 15.2954 47.6458C15.2286 47.5493 15.1432 47.4672 15.0441 47.4042C14.9449 47.3412 14.8342 47.2987 14.7183 47.2792C14.6024 47.2596 14.4838 47.2635 14.3694 47.2904C14.2551 47.3174 14.1473 47.3669 14.0524 47.4361C13.9576 47.5053 13.8776 47.5928 13.8172 47.6933C13.7569 47.7939 13.7173 47.9055 13.7009 48.0216C13.6845 48.1376 13.6916 48.2558 13.7218 48.3691C13.752 48.4823 13.8046 48.5884 13.8766 48.6811C16.5991 52.3737 20.1322 55.3964 24.2059 57.5181C28.1483 59.5683 32.3771 60.6519 36.4346 60.6519C42.6368 60.6519 49.1634 58.1239 54.3404 53.6966C59.8651 48.9713 63.4458 42.3778 64.3952 35.1811H71.6598C71.8192 35.1785 71.975 35.1334 72.111 35.0505C72.2471 34.9676 72.3583 34.8499 72.4334 34.7096C72.5084 34.5693 72.5444 34.4116 72.5377 34.2527C72.531 34.0939 72.4817 33.9397 72.3951 33.8062L64.5149 21.8172ZM57.5276 33.4271L63.7797 23.9198L70.0316 33.4271H57.5276Z" fill="#4579CB" stroke="#4579CB"/>
<path d="M18.4128 26.5957C18.3381 26.4551 18.2269 26.3372 18.0908 26.2542C17.9546 26.1712 17.7987 26.1262 17.6391 26.124H10.9168C11.8375 19.4359 15.1925 13.3193 20.3429 8.93919C25.206 4.78003 31.3151 2.40042 37.1039 2.40042C40.8795 2.40042 44.8268 3.41825 48.5195 5.33857C52.3543 7.33628 55.6802 10.1822 58.2431 13.6586C58.3098 13.7551 58.3953 13.8373 58.4944 13.9002C58.5935 13.9632 58.7043 14.0057 58.8202 14.0252C58.936 14.0448 59.0547 14.041 59.169 14.014C59.2834 13.9871 59.3912 13.9375 59.486 13.8683C59.5809 13.7991 59.6609 13.7116 59.7212 13.6111C59.7816 13.5105 59.8212 13.3989 59.8376 13.2828C59.854 13.1668 59.8469 13.0486 59.8167 12.9353C59.7865 12.822 59.7339 12.7159 59.6619 12.6233C56.9395 8.93038 53.4063 5.90746 49.3326 3.78573C45.3902 1.73546 41.1614 0.651855 37.1039 0.651855C30.9017 0.651855 24.3751 3.18071 19.1981 7.60752C13.6733 12.333 10.0927 18.9269 9.14328 26.124H1.87866C1.71927 26.1266 1.56348 26.1717 1.42745 26.2546C1.29143 26.3375 1.18013 26.4552 1.10511 26.5955C1.03008 26.7358 0.994067 26.8936 1.0008 27.0524C1.00753 27.2113 1.05675 27.3654 1.14337 27.4989L9.02354 39.4854C9.10336 39.6072 9.21232 39.7073 9.34059 39.7766C9.46886 39.846 9.61241 39.8824 9.75831 39.8826C9.90421 39.8828 10.0479 39.8468 10.1763 39.7779C10.3048 39.7089 10.4141 39.6092 10.4943 39.4876L18.3744 27.4982C18.4614 27.365 18.5108 27.211 18.5176 27.0522C18.5243 26.8934 18.4882 26.7357 18.4128 26.5957ZM9.75883 37.3859L3.50693 27.8781H16.0109L9.75883 37.3859Z" fill="#4579CB" stroke="#4579CB"/>
<path d="M37.1507 9.97377C37.0321 9.9138 36.9018 9.88263 36.7697 9.88263C36.6376 9.88263 36.5072 9.9138 36.3886 9.97377L21.0753 17.7244C20.9329 17.7993 20.8141 17.9145 20.7327 18.0565C20.6514 18.1985 20.6108 18.3615 20.6158 18.5263V33.3557C20.6158 37.1977 23.0023 41.9041 26.0811 44.0702L36.2943 51.2659C36.4356 51.367 36.6036 51.4212 36.7756 51.4211C36.9485 51.4212 37.1174 51.3671 37.2599 51.2659L47.4588 44.0702C50.5376 41.9041 52.9227 37.1977 52.9227 33.3557V18.5488C52.9276 18.3841 52.8872 18.2213 52.806 18.0794C52.7248 17.9375 52.6062 17.8224 52.464 17.7473L37.1507 9.97377ZM51.1919 33.3557C51.1919 36.6135 49.093 40.7581 46.4821 42.5949L36.7567 49.4475L27.0502 42.5949C24.4834 40.7892 22.3465 36.5581 22.3465 33.3557V19.0832L36.7692 11.7696L51.1919 19.1039V33.3557Z" fill="#4579CB" stroke="#4579CB"/>
<path d="M31.2369 29.6497C31.1607 29.5739 31.0701 29.5139 30.9704 29.4732C30.8706 29.4324 30.7638 29.4118 30.656 29.4124C30.5481 29.413 30.4415 29.4349 30.3423 29.4767C30.243 29.5186 30.1532 29.5796 30.0778 29.6563C30.0025 29.7329 29.9433 29.8237 29.9035 29.9232C29.8638 30.0228 29.8443 30.1292 29.8463 30.2363C29.8483 30.3434 29.8716 30.4491 29.915 30.5471C29.9584 30.6452 30.021 30.7337 30.099 30.8076L34.4598 35.0372C34.6119 35.1848 34.8161 35.2674 35.0287 35.2674C35.2414 35.2674 35.4456 35.1848 35.5977 35.0372L43.4541 27.4176C43.6055 27.267 43.6911 27.0632 43.6923 26.8504C43.6935 26.6376 43.6103 26.4328 43.4606 26.2805C43.311 26.1282 43.1069 26.0406 42.8927 26.0367C42.6785 26.0328 42.4714 26.1129 42.3162 26.2597L35.0287 33.3278L31.2369 29.6497Z" fill="#4579CB" stroke="#4579CB"/>
</svg>
