<svg width="60" height="61" viewBox="0 0 60 61" fill="none" xmlns="http://www.w3.org/2000/svg">
<path d="M50.5 27.6519C51.8807 27.6519 53 28.995 53 30.6519C53 32.3087 51.8807 33.6519 50.5 33.6519C49.1193 33.6519 48 32.3087 48 30.6519C48 28.995 49.1193 27.6519 50.5 27.6519Z" fill="#F2994A"/>
<path d="M30 10.6519C31.6569 10.6519 33 11.7711 33 13.1519C33 14.5326 31.6569 15.6519 30 15.6519C28.3431 15.6519 27 14.5326 27 13.1519C27 11.7711 28.3431 10.6519 30 10.6519Z" fill="#F2994A"/>
<path d="M30 27.6519C31.6569 27.6519 33 28.995 33 30.6519C33 32.3087 31.6569 33.6519 30 33.6519C28.3431 33.6519 27 32.3087 27 30.6519C27 28.995 28.3431 27.6519 30 27.6519Z" fill="#F2994A"/>
<path d="M30 60.6519C24.0666 60.6519 18.2664 58.8924 13.3329 55.5959C8.39943 52.2995 4.55426 47.6141 2.28363 42.1324C0.0129986 36.6506 -0.581101 30.6186 0.576455 24.7992C1.73401 18.9797 4.59123 13.6342 8.78681 9.43866C12.9824 5.24309 18.3279 2.38587 24.1473 1.22831C29.9667 0.070755 35.9987 0.664852 41.4805 2.93548C46.9623 5.20611 51.6476 9.05128 54.9441 13.9848C58.2405 18.9182 60 24.7184 60 30.6519C59.9911 38.6056 56.8275 46.231 51.2033 51.8552C45.5792 57.4793 37.9538 60.6429 30 60.6519V60.6519ZM55 30.6519C55.0041 25.4971 53.4053 20.4686 50.425 16.2628L41.2156 25.4719C42.4755 26.6063 43.604 27.8787 44.58 29.265C44.8538 29.6756 44.9999 30.1582 44.9999 30.6517C44.9999 31.1453 44.8538 31.6278 44.58 32.0384C43.6042 33.4249 42.4756 34.6974 41.2156 35.8319L50.425 45.0409C53.4053 40.8351 55.0041 35.8066 55 30.6519ZM20.6909 30.6519C22.3578 32.5328 25.7613 35.6519 30 35.6519C34.2388 35.6519 37.6444 32.5309 39.3091 30.6519C37.6425 28.7709 34.2391 25.6519 30 25.6519C25.7609 25.6519 22.3578 28.7709 20.6909 30.6519ZM30 55.6519C36.3761 55.6549 42.5105 53.2121 47.1391 48.8269L37.0953 38.7828C34.9312 40.0079 32.4868 40.6518 30 40.6518C27.5132 40.6518 25.0688 40.0079 22.9047 38.7828L12.8606 48.8269C17.4894 53.2121 23.6238 55.6549 30 55.6519ZM9.57501 45.0412L18.7844 35.8319C17.5243 34.6975 16.3957 33.425 15.42 32.0384C15.1462 31.6278 15.0002 31.1453 15.0002 30.6517C15.0002 30.1582 15.1462 29.6756 15.42 29.265C16.3959 27.8786 17.5244 26.6063 18.7844 25.4719L9.57501 16.2625C6.59841 20.4703 4.99999 25.4977 4.99999 30.6519C4.99999 35.8061 6.59841 40.8334 9.57501 45.0412ZM12.8606 12.4769L22.9063 22.5209C25.0703 21.2958 27.5148 20.6519 30.0016 20.6519C32.4884 20.6519 34.9328 21.2958 37.0969 22.5209L47.1406 12.4769C42.5103 8.0942 36.377 5.65185 30.0014 5.65185C23.6259 5.65185 17.4925 8.0942 12.8622 12.4769H12.8606Z" fill="#F2994A"/>
<path d="M30 45.6519C31.6569 45.6519 33 46.7711 33 48.1519C33 49.5326 31.6569 50.6519 30 50.6519C28.3431 50.6519 27 49.5326 27 48.1519C27 46.7711 28.3431 45.6519 30 45.6519Z" fill="#F2994A"/>
<path d="M10 27.6519C11.1046 27.6519 12 28.995 12 30.6519C12 32.3087 11.1046 33.6519 10 33.6519C8.89543 33.6519 8 32.3087 8 30.6519C8 28.995 8.89543 27.6519 10 27.6519Z" fill="#F2994A"/>
</svg>
