<svg width="84" height="51" viewBox="0 0 84 51" fill="none" xmlns="http://www.w3.org/2000/svg">
<path d="M83.6605 42.9069C83.5853 40.9241 82.8243 39.0929 81.5178 37.7504C80.8609 37.0754 80.1916 36.4196 79.5115 35.7818V21.4519C79.5115 20.6863 79.2242 19.9558 78.7196 19.4385C75.7506 16.3941 72.4076 13.8199 68.7314 11.7392V8.4496C68.7314 6.94125 67.6383 5.71841 66.29 5.71841C64.9417 5.71841 63.8486 6.94125 63.8486 8.4496V9.35199C63.2092 9.08451 62.5637 8.82669 61.908 8.5858C58.9417 7.49569 55.795 6.67341 52.4913 6.1219V3.38305C52.4913 1.8747 51.3982 0.651855 50.0499 0.651855C48.7016 0.651855 47.6085 1.8747 47.6085 3.38305V5.51539C45.7858 5.36244 43.9235 5.2836 42.0224 5.2836C40.057 5.2836 38.133 5.36845 36.2511 5.53196V3.38305C36.2511 1.8747 35.158 0.651855 33.8097 0.651855C32.4614 0.651855 31.3683 1.8747 31.3683 3.38305V6.15394C28.1299 6.70528 25.0423 7.51571 22.1296 8.58561C21.413 8.8489 20.7079 9.13058 20.0111 9.42537V8.4496C20.0111 6.94125 18.918 5.71841 17.5697 5.71841C16.2214 5.71841 15.1283 6.94125 15.1283 8.4496V11.8396C11.5204 13.9033 8.23899 16.4444 5.32315 19.4405C4.81941 19.9581 4.53295 20.6885 4.53327 21.4536L4.54092 35.7311C3.84236 36.3846 3.15584 37.0578 2.48185 37.7502C1.17553 39.0927 0.414631 40.9241 0.339436 42.9069C0.264241 44.8898 0.883705 46.7867 2.08357 48.2479C4.56062 51.2651 8.77024 51.4652 11.4677 48.6938C12.5805 47.5503 13.7728 46.4454 15.0116 45.4101C22.8532 38.8573 32.1856 35.3936 41.9998 35.3936C51.8141 35.3936 61.1464 38.8571 68.988 45.4101C70.2258 46.4445 71.4184 47.5492 72.5321 48.6938C73.761 49.9565 75.3562 50.6519 77.0238 50.6519C78.8788 50.6519 80.662 49.7755 81.9161 48.248C83.1163 46.7865 83.7357 44.8896 83.6605 42.9069ZM68.7315 17.9474C70.8355 19.3274 72.8031 20.9026 74.6288 22.6751V31.6717C72.7276 30.2376 70.7585 28.9345 68.7315 27.7666V17.9474ZM52.4915 11.642C56.5786 12.3792 60.3676 13.5724 63.8487 15.216V25.2658C60.1938 23.6176 56.3907 22.3851 52.4915 21.5927V11.642ZM36.2513 11.0065C38.1204 10.8345 40.0434 10.7458 42.0226 10.7458C43.9363 10.7458 45.7973 10.8294 47.6087 10.9907V20.8348C45.7532 20.6362 43.8821 20.534 42 20.534C40.0705 20.534 38.1527 20.6426 36.2513 20.8512V11.0065ZM20.0113 15.2971C23.489 13.6349 27.2778 12.4246 31.3685 11.6726V21.6202C27.4683 22.4237 23.6652 23.6687 20.0113 25.3288V15.2971ZM15.1285 18.0614V27.8475C13.1687 28.9842 11.2636 30.2476 9.42177 31.6338L9.41689 22.6729C11.1877 20.9505 13.0928 19.4132 15.1285 18.0614ZM78.3201 44.5529C77.9831 44.9635 77.5229 45.1895 77.024 45.1895C76.5829 45.1895 76.1609 45.0052 75.8355 44.6709C74.6007 43.4018 73.2799 42.1782 71.9104 41.0337C63.2185 33.7702 52.8756 29.931 42 29.931C31.1244 29.931 20.7814 33.7702 12.0894 41.0339C10.7188 42.1793 9.39817 43.4031 8.16461 44.6707C7.45058 45.4047 6.33584 45.3519 5.67959 44.5527C5.36189 44.1658 5.19782 43.6635 5.21784 43.1385C5.23786 42.6134 5.4392 42.1285 5.78522 41.7731C15.6859 31.5994 28.5472 25.9966 42 25.9966C55.4528 25.9966 68.3142 31.5994 78.2147 41.7731C78.5606 42.1285 78.7621 42.6134 78.7821 43.1385C78.8021 43.6635 78.6381 44.1658 78.3201 44.5529Z" fill="#F2C94C"/>
</svg>
