<svg width="60" height="61" viewBox="0 0 60 61" fill="none" xmlns="http://www.w3.org/2000/svg">
<path d="M30.0106 0.651856C18.0069 0.650106 7.15813 7.80673 2.43349 18.8439L2.05957 18.9679L2.20454 19.4029C-4.01617 34.7486 3.37842 52.2327 18.721 58.4547C22.3043 59.908 26.1349 60.654 30.0017 60.6519C46.5668 60.6544 59.9975 47.2249 60 30.6564C60.0025 14.0879 46.5758 0.654231 30.0106 0.651856ZM53.5373 45.7774L51.9972 44.2379V40.6519C51.9989 40.4971 51.9647 40.3441 51.8972 40.2049L47.998 32.4159V28.6519C47.998 28.3176 47.8312 28.0054 47.5531 27.8199L44.5537 25.8199C44.3186 25.6629 44.0281 25.6127 43.7539 25.6819L40.0806 26.5999L33.9109 23.9519L33.0621 18.0039L35.4146 15.6519H40.4646L42.1642 18.2069C42.3177 18.4366 42.5595 18.5927 42.8321 18.6379L48.8308 19.6379C48.9915 19.6649 49.1563 19.6517 49.3107 19.5999L54.8356 17.7579C59.4695 26.6522 58.9738 37.3499 53.5373 45.7774ZM49.4137 10.5059L47.788 11.5899L43.256 10.6829L40.3156 9.70386C40.1356 9.64273 39.9419 9.63498 39.7577 9.68186L36.0405 10.6109L34.4108 10.0679L35.6186 7.65185H38.9999C39.155 7.65198 39.3079 7.61611 39.4468 7.54685L42.9061 5.81685C45.2883 7.06061 47.4799 8.63961 49.4137 10.5059ZM19.051 4.88486L21.4505 6.48486C21.5685 6.56336 21.7017 6.61586 21.8414 6.63885L26.6864 7.44686L26.2135 8.86186L23.6891 9.70485C23.463 9.78011 23.2711 9.93361 23.1482 10.1379L20.2768 14.9239L15.6647 17.6919L8.86615 18.6629C8.37338 18.7325 8.00696 19.1541 8.00633 19.6519V22.6519C8.00633 22.9171 8.11181 23.1714 8.29927 23.3589L10.0059 25.0659V26.7839L5.84678 24.0099L4.33809 19.4829C7.2085 12.9229 12.4695 7.70286 19.051 4.88486ZM16.2046 37.6719L11.6856 36.7669L10.0059 33.4159V31.0659L13.7311 27.3399L15.1098 30.0989C15.2792 30.4379 15.6257 30.652 16.0047 30.6519H22.4373L25.1458 35.1669C25.3265 35.4677 25.6517 35.6517 26.0026 35.6519H28.782L28.0821 39.1589L24.2969 42.9449C24.1091 43.1322 24.0034 43.3865 24.003 43.6519V46.1519L20.4037 48.8519C20.1521 49.0407 20.0038 49.3371 20.0038 49.6519V53.2639L18.7601 52.8519L17.0045 48.4599V38.6519C17.0046 38.1766 16.6702 37.7669 16.2046 37.6719ZM13.1992 53.0445C3.77259 45.9709 -0.213957 33.7489 3.22833 22.4759L4.05915 24.9679C4.12914 25.1787 4.26736 25.3604 4.45207 25.4839L9.43603 28.8069L8.29927 29.9449C8.11181 30.1324 8.00633 30.3866 8.00633 30.6519V33.6519C8.00621 33.807 8.04207 33.96 8.11131 34.0989L10.1109 38.0989C10.2494 38.3751 10.5077 38.5719 10.8107 38.6319L15.0099 39.4709V48.6519C15.0097 48.7789 15.0339 48.9049 15.0809 49.0229L17.0804 54.0229C17.1899 54.296 17.4141 54.5071 17.6933 54.5999L20.6927 55.5999C20.7929 55.6339 20.8979 55.6514 21.0036 55.6519C21.5558 55.6519 22.0034 55.2041 22.0034 54.6519V50.1519L25.6027 47.4519C25.8544 47.263 26.0026 46.9666 26.0026 46.6519V44.0659L29.7088 40.3589C29.8482 40.2192 29.9431 40.0414 29.9818 39.8479L30.9815 34.8479C31.0898 34.3062 30.7386 33.7795 30.1971 33.6712C30.1327 33.6584 30.0674 33.6519 30.0017 33.6519H26.5685L23.86 29.1369C23.6793 28.836 23.3541 28.652 23.0032 28.6519H16.6225L14.9049 25.2049C14.761 24.9171 14.4876 24.7161 14.17 24.6649C13.8526 24.61 13.5286 24.7147 13.3032 24.9449L12.0055 26.2379V24.6519C12.0055 24.3866 11.9 24.1324 11.7126 23.9449L10.0059 22.2379V20.5189L16.1466 19.6419C16.2785 19.6227 16.4053 19.5775 16.5196 19.5089L21.5185 16.5089C21.6587 16.4246 21.7762 16.3071 21.8604 16.1669L24.6699 11.4839L27.3183 10.5999C27.6174 10.5017 27.8521 10.2671 27.9502 9.96786L28.95 6.96785C29.1232 6.44348 28.8386 5.87786 28.3143 5.70461C28.266 5.68861 28.2164 5.67636 28.1661 5.66786L22.3793 4.70286L21.3625 4.02486C27.6541 1.97661 34.4684 2.23011 40.5905 4.73986L38.7639 5.65185H35.0007C34.6199 5.64973 34.2711 5.86423 34.1009 6.20485L32.1013 10.2049C31.855 10.6991 32.0558 11.2996 32.55 11.546C32.5921 11.567 32.6356 11.585 32.6802 11.5999L35.6796 12.5999C35.8595 12.661 36.0532 12.6687 36.2374 12.6219L39.9547 11.6929L42.6781 12.5999C42.7171 12.6139 42.7572 12.6246 42.7981 12.6319L47.797 13.6319C48.057 13.6849 48.3274 13.6316 48.5479 13.4839L50.8234 11.9659C51.9433 13.2135 52.9497 14.5585 53.8308 15.9849L48.9118 17.6249L43.5859 16.7369L41.8263 14.0969C41.6418 13.8202 41.3319 13.6535 40.9995 13.6519H35.0007C34.7355 13.6519 34.4813 13.7574 34.2938 13.9449L31.2945 16.9449C31.0718 17.1675 30.9669 17.4821 31.0115 17.7939L32.0113 24.7939C32.0617 25.14 32.2891 25.4346 32.6112 25.5709L39.6097 28.5709C39.8102 28.6577 40.0339 28.6756 40.2456 28.6219L43.8159 27.7289L45.9984 29.1869V32.6519C45.9967 32.8066 46.0309 32.9596 46.0984 33.0989L49.9976 40.8879V44.6519C49.9976 44.9171 50.1031 45.1714 50.2905 45.3589L52.3821 47.4519C43.1061 59.8185 25.5633 62.3225 13.1992 53.0445Z" fill="#56CCF2"/>
</svg>
