<svg width="60" height="61" viewBox="0 0 60 61" fill="none" xmlns="http://www.w3.org/2000/svg">
<path d="M56.3946 7.216C56.6194 6.73107 56.7459 6.19143 56.7459 5.62271V4.45307C56.7459 2.35705 55.0407 0.651855 52.9447 0.651855C50.8487 0.651855 49.1435 2.35705 49.1435 4.45307C49.19 5.29143 48.988 6.12311 49.4948 7.216C45.0622 9.85189 46.4796 14.7814 46.2195 16.4413H59.6698C59.4073 14.766 60.8287 9.85283 56.3946 7.216ZM50.8979 4.45307C50.8979 3.32443 51.816 2.40627 52.9447 2.40627C54.0733 2.40627 54.9915 3.32443 54.9915 4.45307V5.62271C54.9915 6.75135 54.0733 7.66951 52.9447 7.66951C51.816 7.66951 50.8979 6.75135 50.8979 5.62271V4.45307ZM57.9154 14.6869H47.9739C48.094 14.0681 47.253 10.3933 50.5966 8.60854C51.9657 9.68748 53.9028 9.70389 55.2928 8.60854C58.6212 10.3852 57.8057 14.1219 57.9154 14.6869Z" fill="#2D9CDB"/>
<path d="M10.1957 7.216C10.706 6.11584 10.5005 5.29037 10.5471 4.45307C10.5471 2.35705 8.84187 0.651855 6.74585 0.651855C4.64984 0.651855 2.94464 2.35705 2.94464 4.45307C2.99116 5.29143 2.78913 6.12311 3.29597 7.216C-1.13653 9.85189 0.280735 14.7814 0.020696 16.4413H13.471C13.2085 14.766 14.6299 9.85283 10.1957 7.216ZM4.69906 4.45307C4.69906 3.32443 5.61722 2.40627 6.74585 2.40627C7.87449 2.40627 8.79265 3.32443 8.79265 4.45307V5.62271C8.79265 6.75135 7.87449 7.66951 6.74585 7.66951C5.61722 7.66951 4.69906 6.75135 4.69906 5.62271V4.45307ZM11.7166 14.6869H1.77511C1.89523 14.0681 1.05417 10.3933 4.39777 8.60854C5.04476 9.11842 5.86003 9.42381 6.74585 9.42381C7.63167 9.42381 8.44695 9.11842 9.09394 8.60854C12.4224 10.3852 11.6069 14.1219 11.7166 14.6869Z" fill="#2D9CDB"/>
<path d="M56.3946 51.4267C56.9048 50.3265 56.6995 49.5009 56.7459 48.6637C56.7459 46.5678 55.0407 44.8625 52.9447 44.8625C50.8487 44.8625 49.1435 46.5677 49.1435 48.6637V49.8333C49.1435 50.4021 49.2699 50.9416 49.4948 51.4267C45.0622 54.0626 46.4796 58.992 46.2195 60.652H59.6698C59.4073 58.9768 60.8287 54.0635 56.3946 51.4267ZM50.8979 48.6637C50.8979 47.5351 51.816 46.6169 52.9447 46.6169C54.0733 46.6169 54.9915 47.5351 54.9915 48.6637V49.8333C54.9915 50.9619 54.0733 51.8801 52.9447 51.8801C51.816 51.8801 50.8979 50.9619 50.8979 49.8333V48.6637ZM57.9154 58.8976H47.9739C48.094 58.2787 47.253 54.604 50.5966 52.8192C51.9662 53.8985 53.9033 53.9142 55.2928 52.8192C58.6212 54.596 57.8057 58.3325 57.9154 58.8976Z" fill="#2D9CDB"/>
<path d="M10.1957 51.4267C10.4206 50.9417 10.5471 50.4021 10.5471 49.8333V48.6637C10.5471 46.5678 8.84186 44.8625 6.74585 44.8625C4.64983 44.8625 2.94464 46.5677 2.94464 48.6637V49.8333C2.94464 50.4021 3.07108 50.9416 3.29596 51.4267C1.27788 52.6268 0.0206909 54.7963 0.0206909 57.2017V60.652H13.471C13.2085 58.9768 14.6299 54.0635 10.1957 51.4267ZM4.69905 48.6637C4.69905 47.5351 5.61721 46.6169 6.74585 46.6169C7.87448 46.6169 8.79264 47.5351 8.79264 48.6637V49.8333C8.79264 50.9619 7.87448 51.8801 6.74585 51.8801C5.61721 51.8801 4.69905 50.9619 4.69905 49.8333V48.6637ZM11.7166 58.8976H1.7751V57.2017C1.7751 55.3448 2.78854 53.6782 4.39776 52.8192C5.76733 53.8985 7.70444 53.9142 9.09393 52.8192C12.4224 54.596 11.6069 58.3325 11.7166 58.8976Z" fill="#2D9CDB"/>
<path d="M55.3677 19.4355C55.5882 19.9537 55.7955 20.4865 55.9837 21.0193L57.6378 20.4346C57.4373 19.8677 57.2167 19.3005 56.982 18.7487L55.3677 19.4355Z" fill="#2D9CDB"/>
<path d="M56.3783 43.1834C59.0706 37.6352 59.8714 31.5141 58.963 25.6879L57.2296 25.9583C58.0743 31.3757 57.3594 37.1432 54.8001 42.4175L56.3783 43.1834Z" fill="#2D9CDB"/>
<path d="M58.6297 23.9108C58.5008 23.3232 58.3521 22.7333 58.1875 22.1572L56.5005 22.6386C56.6551 23.18 56.7949 23.7347 56.9162 24.287L58.6297 23.9108Z" fill="#2D9CDB"/>
<path d="M2.59964 18.7291C0.161556 24.4523 -0.302858 30.6613 0.866791 36.3304L2.58511 35.9759C1.49175 30.6774 1.908 24.8287 4.21367 19.4167L2.59964 18.7291Z" fill="#2D9CDB"/>
<path d="M3.47573 39.2552C3.2948 38.7221 3.12792 38.1751 2.97991 37.6295L1.28679 38.0892C1.44441 38.6697 1.62195 39.2517 1.8146 39.8191L3.47573 39.2552Z" fill="#2D9CDB"/>
<path d="M4.76422 42.3994C4.51836 41.8917 4.28516 41.3695 4.07117 40.8476L2.44789 41.5128C2.67547 42.0683 2.92356 42.6239 3.18524 43.1642L4.76422 42.3994Z" fill="#2D9CDB"/>
<path d="M18.5115 4.89737L17.7992 3.29401C17.2515 3.5374 16.7033 3.80143 16.1703 4.07893L16.9803 5.63506C17.4814 5.3742 17.9964 5.126 18.5115 4.89737Z" fill="#2D9CDB"/>
<path d="M45.5269 7.40277L46.5239 5.95914C38.3466 0.311988 28.1342 -0.608871 19.4738 2.61132L20.0853 4.2557C28.1962 1.23964 37.8087 2.07261 45.5269 7.40277Z" fill="#2D9CDB"/>
<path d="M15.4978 6.46606L14.593 4.96289C14.0966 5.26172 13.6022 5.57988 13.1232 5.90848L14.1158 7.35504C14.5661 7.04613 15.0311 6.74707 15.4978 6.46606Z" fill="#2D9CDB"/>
<path d="M16.3544 54.6305L15.5045 56.1652C22.0711 59.8019 29.9135 60.7814 37.222 58.894L36.7834 57.1954C29.9189 58.9682 22.5376 58.0549 16.3544 54.6305Z" fill="#2D9CDB"/>
<path d="M38.4151 56.7196L38.9581 58.3879C39.5285 58.2023 40.1009 57.9962 40.6596 57.7754L40.0144 56.1439C39.4893 56.3514 38.9513 56.5451 38.4151 56.7196Z" fill="#2D9CDB"/>
<path d="M41.5747 55.4701L42.3199 57.0583C42.8636 56.8032 43.4061 56.5279 43.9323 56.24L43.0903 54.7008C42.5955 54.9714 42.0856 55.2302 41.5747 55.4701Z" fill="#2D9CDB"/>
<path d="M29.7868 10.1254C18.662 10.1254 9.61133 19.1761 9.61133 30.3009C9.61133 41.4257 18.662 50.4764 29.7868 50.4764C40.9116 50.4764 49.9623 41.4257 49.9623 30.3009C49.9623 19.1761 40.9116 10.1254 29.7868 10.1254ZM23.9806 12.8182C23.0748 13.7367 22.2382 14.8797 21.4927 16.2314C21.0438 17.0452 20.6387 17.9164 20.2789 18.835C19.2593 18.2183 18.2941 17.4986 17.3966 16.6809C19.2779 14.9681 21.5143 13.6393 23.9806 12.8182ZM16.1558 17.9226C17.2468 18.9248 18.43 19.7939 19.6857 20.5225C18.8375 23.2286 18.3532 26.2623 18.2773 29.4236H11.3871C11.5952 25.0077 13.3648 20.9933 16.1558 17.9226ZM11.3871 31.178H18.2773C18.3588 34.5731 18.912 37.8202 19.8805 40.6732C18.6887 41.3463 17.5603 42.1441 16.5132 43.0603C13.5167 39.9443 11.604 35.7795 11.3871 31.178ZM17.7938 44.2715C18.6455 43.5397 19.5548 42.8928 20.5104 42.3346C20.8101 43.0456 21.1374 43.7262 21.4927 44.3704C22.2382 45.7221 23.0748 46.8651 23.9806 47.7836C21.6855 47.0194 19.5898 45.8153 17.7938 44.2715ZM28.9096 48.6453C26.7228 48.2673 24.6613 46.4825 23.0291 43.5232C22.681 42.8922 22.3617 42.2227 22.0709 41.5209C24.2036 40.5364 26.519 39.9659 28.9098 39.8537V48.6453H28.9096ZM28.9096 38.0983C26.3082 38.2098 23.7863 38.8155 21.46 39.8702C20.6021 37.2569 20.11 34.2889 20.0321 31.178H28.9096V38.0983ZM28.9096 29.4236H20.0321C20.1041 26.5549 20.5284 23.8079 21.2668 21.3482C23.6423 22.4561 26.2288 23.0912 28.9096 23.2051V29.4236ZM28.9096 21.4496C26.4239 21.3339 24.0283 20.7269 21.8346 19.6755C22.1854 18.755 22.584 17.8855 23.0291 17.0785C24.6613 14.1191 26.7228 12.3344 28.9096 11.9564V21.4496ZM48.1865 29.4236H41.2963C41.2204 26.2623 40.7361 23.2286 39.8879 20.5225C41.1436 19.7939 42.3268 18.9247 43.4178 17.9226C46.2088 20.9933 47.9784 25.0077 48.1865 29.4236ZM42.1769 16.6809C41.2794 17.4986 40.3142 18.2183 39.2946 18.835C38.9348 17.9164 38.5297 17.0452 38.0807 16.2314C37.3353 14.8797 36.4987 13.7367 35.5929 12.8182C38.0593 13.6393 40.2957 14.9681 42.1769 16.6809ZM30.6639 11.9564C32.8508 12.3344 34.9123 14.1192 36.5445 17.0785C36.9895 17.8855 37.3881 18.755 37.739 19.6755C35.5453 20.7269 33.1497 21.3339 30.6639 21.4496V11.9564ZM30.6639 23.2051C33.3448 23.0912 35.9313 22.4561 38.3068 21.3482C39.0452 23.808 39.4697 26.5549 39.5415 29.4236H30.6639V23.2051ZM30.6639 31.178H39.5415C39.4636 34.2888 38.9715 37.2569 38.1136 39.8702C35.7871 38.8155 33.2654 38.2098 30.6639 38.0983V31.178ZM30.6639 48.6453V39.8537C33.0546 39.9659 35.37 40.5364 37.5028 41.5209C37.212 42.2227 36.8926 42.8922 36.5446 43.5232C34.9125 46.4826 32.8508 48.2673 30.6639 48.6453ZM35.593 47.7836C36.7902 46.5697 38.0245 44.7987 39.0632 42.3346C40.0188 42.8928 40.928 43.5398 41.7798 44.2715C39.9838 45.8153 37.8881 47.0194 35.593 47.7836ZM43.0604 43.0603C42.0133 42.1441 40.8849 41.3463 39.6931 40.6732C40.6614 37.8201 41.2148 34.5731 41.2963 31.178H48.1865C47.9696 35.7795 46.0569 39.9443 43.0604 43.0603Z" fill="#2D9CDB"/>
</svg>
