<svg width="61" height="61" viewBox="0 0 61 61" fill="none" xmlns="http://www.w3.org/2000/svg">
<path d="M42.1037 48.6518H33.0242V40.6518C33.0242 37.8904 30.7657 35.6518 27.98 35.6518H21.9269V30.1618L35.6269 20.4618C35.8489 20.306 35.9981 20.068 36.0406 19.8018C36.0808 19.5364 36.0117 19.2662 35.8489 19.0518L32.8224 15.0518C32.4963 14.622 31.8857 14.5248 31.4403 14.8318L21.0997 21.9218C22.9282 18.507 21.6177 14.2694 18.1728 12.457C14.7279 10.6445 10.4528 11.9435 8.6244 15.3583C7.15414 18.1039 7.68668 21.4817 9.93185 23.6518H8.81204C8.52742 23.6524 8.25617 23.7723 8.0655 23.9818L1.54841 31.1618C-0.240893 33.1434 -0.152241 36.1665 1.75018 38.0418L7.08693 43.3618C7.29664 43.5699 7.58819 43.676 7.88391 43.6518C8.18341 43.6289 8.45706 43.475 8.63045 43.2318L9.82088 41.5618V59.6518C9.82088 60.204 10.2726 60.6518 10.8297 60.6518H16.8827C17.4399 60.6518 17.8916 60.204 17.8916 59.6518V43.6518H24.9534V48.6518H21.9269C21.3698 48.6518 20.9181 49.0995 20.9181 49.6518V59.6518C20.9181 60.204 21.3698 60.6518 21.9269 60.6518H42.1037C42.6608 60.6518 43.1125 60.204 43.1125 59.6518V49.6518C43.1125 49.0995 42.6609 48.6518 42.1037 48.6518ZM9.82088 18.6518C9.82088 15.8904 12.0793 13.6518 14.8651 13.6518C17.6508 13.6518 19.9093 15.8904 19.9093 18.6518C19.9093 21.4132 17.6508 23.6518 14.8651 23.6518C12.0793 23.6518 9.82088 21.4132 9.82088 18.6518ZM17.2661 25.6518L15.8739 28.4118L14.4817 25.6518H17.2661ZM9.82088 36.3618L8.20674 34.6518L9.82088 33.0518V36.3618ZM16.8827 41.6518C16.3256 41.6518 15.8739 42.0995 15.8739 42.6518V58.6518H11.8386V30.6518C11.8365 30.248 11.5898 29.8852 11.2131 29.7318C10.8374 29.5752 10.4036 29.658 10.1134 29.9418L6.07809 33.9418C5.6936 34.3307 5.6936 34.9529 6.07809 35.3418L9.37699 38.7518L7.67205 41.1118L3.15246 36.6518C1.99999 35.5213 1.95106 33.6913 3.04149 32.5018L9.26602 25.6518H12.2219L14.976 31.1018C15.2301 31.5933 15.838 31.7877 16.3339 31.5358C16.5222 31.4402 16.6754 31.2884 16.7718 31.1018L19.6873 25.3318L31.7934 17.0218L33.6194 19.4318L20.333 28.8418C20.0684 29.0284 19.9108 29.3299 19.9093 29.6518V36.6518C19.9093 37.204 20.361 37.6518 20.9181 37.6518H27.98C29.6515 37.6518 31.0065 38.9949 31.0065 40.6518V48.6518H26.9711V42.6518C26.9711 42.0995 26.5194 41.6518 25.9623 41.6518H16.8827ZM41.0949 58.6518H22.9358V50.6518H41.0949V58.6518Z" fill="#EB5757"/>
<path d="M59.2539 8.65186C55.3537 8.65186 52.192 5.51786 52.192 1.65186C52.192 1.09961 51.7403 0.651855 51.1832 0.651855C50.6261 0.651855 50.1744 1.09961 50.1744 1.65186C50.1744 5.51786 47.0127 8.65186 43.1125 8.65186C42.5554 8.65186 42.1037 9.09961 42.1037 9.65186C42.1037 10.2041 42.5554 10.6519 43.1125 10.6519C47.0127 10.6519 50.1744 13.7859 50.1744 17.6519C50.1744 18.2041 50.6261 18.6519 51.1832 18.6519C51.7403 18.6519 52.192 18.2041 52.192 17.6519C52.192 13.7859 55.3537 10.6519 59.2539 10.6519C59.811 10.6519 60.2628 10.2041 60.2628 9.65186C60.2628 9.09961 59.8112 8.65186 59.2539 8.65186ZM51.1832 13.5319C50.3135 11.8694 48.9462 10.5141 47.2689 9.65186C48.9461 8.78961 50.3133 7.43436 51.1832 5.77186C52.0531 7.43436 53.4203 8.78961 55.0975 9.65186C53.4203 10.5141 52.0531 11.8694 51.1832 13.5319Z" fill="#EB5757"/>
<path d="M34.1677 25.8432L31.4179 27.8418L32.611 29.4546L35.3607 27.456L34.1677 25.8432Z" fill="#EB5757"/>
<path d="M46.554 16.8438L36.4688 24.1797L37.6624 25.7921L47.7477 18.4562L46.554 16.8438Z" fill="#EB5757"/>
<path d="M42.5474 11.818L36.4957 15.8174L37.6149 17.4814L43.6667 13.482L42.5474 11.818Z" fill="#EB5757"/>
</svg>
