<svg width="82" height="61" viewBox="0 0 82 61" fill="none" xmlns="http://www.w3.org/2000/svg">
<path d="M73.2497 39.098C68.8269 39.098 64.8808 36.6439 62.9137 32.7623C65.9179 29.6509 67.6311 25.5583 67.7524 21.1631C67.903 15.7045 65.9191 10.5141 62.1658 6.54774C58.4125 2.58137 53.3311 0.154053 47.2021 0.154053C35.2638 0.154053 25.2124 8.86781 23.2799 20.3939C21.729 19.8717 20.069 19.5985 18.3848 19.596C18.3755 19.596 18.3848 19.596 18.3754 19.596C8.25579 19.596 0.0148437 27.822 2.35861e-05 37.9452C-0.017665 50.1734 9.91612 60.1362 22.1478 60.1541H58.2415C63.4931 60.1541 68.6405 58.3433 72.7351 55.0551C76.8299 51.767 79.7097 47.1323 80.8437 42.0045L81.4863 39.098H73.2497ZM69.7419 51.3275C66.4927 53.9364 62.4085 55.3734 58.2415 55.3734H22.1512C12.5592 55.3593 4.76669 47.5442 4.78071 37.9522C4.79155 30.4622 10.8879 24.3768 18.3755 24.3768H18.3958C21.207 24.381 23.8483 25.4796 25.8333 27.4703C27.8182 29.4609 28.9091 32.1056 28.905 34.9168C28.8985 39.4959 25.6393 42.949 21.3241 42.949C17.963 42.949 15.6155 40.8535 15.6155 37.8531C15.6155 36.1574 16.3015 34.9267 17.6543 34.1954L15.3806 29.99C12.4916 31.5518 10.8348 34.4179 10.8348 37.8531C10.8348 43.4836 15.3443 47.7297 21.3241 47.7297C24.7492 47.7297 27.9047 46.3795 30.2093 43.9281C32.4462 41.5486 33.6808 38.3506 33.6857 34.9238C33.6916 30.8355 32.1052 26.9898 29.2186 24.0948C28.7649 23.6398 28.2877 23.2169 27.7897 22.8273C28.6239 12.5915 37.3565 4.6557 47.7492 4.94255C51.9312 5.05792 55.818 6.79506 58.6935 9.83383C61.569 12.8726 63.0891 16.8493 62.9736 21.0313C62.881 24.3869 61.5177 27.4946 59.135 29.7822C56.7522 32.0701 53.6114 33.2794 50.2861 33.188C47.6432 33.115 45.2145 32.0454 43.4474 30.1761C41.6803 28.3069 40.7474 25.8206 40.8204 23.1758C40.9452 18.6585 44.272 15.9592 47.4163 15.9592C48.9573 15.9592 50.511 16.6477 51.6789 17.8483C52.8682 19.0709 53.5252 20.679 53.4817 22.2603L58.2605 22.392C58.3395 19.5281 57.1896 16.657 55.1057 14.5148C53.0432 12.3945 50.2404 11.1785 47.4163 11.1785C44.4763 11.1785 41.6793 12.3819 39.5404 14.5673C37.374 16.781 36.1313 19.7912 36.0416 23.0438C35.9333 26.9643 37.3297 30.6637 39.9734 33.4603C42.6184 36.2581 46.234 37.8587 50.1544 37.9669C53.7399 37.9669 56.5455 37.2001 59.0934 35.7423C60.3178 37.849 61.9974 39.6554 64.0383 41.0436C66.766 42.8985 69.9512 43.879 73.25 43.879H75.2727C74.0999 46.7766 72.1959 49.3567 69.7419 51.3275Z" fill="#666666"/>
</svg>
